<svg width="133" height="200" viewBox="0 0 133 200" fill="none" xmlns="http://www.w3.org/2000/svg">
<path d="M86.8547 118.757C158.702 85.075 125.197 0 125.197 0C-20.0351 0 1.0703 124.614 1.0703 124.614L80.0542 124.633C93.2161 131.43 107.947 154.575 91.8469 175.195C83.4125 185.994 67.2024 186.716 56.8692 177.733C52.6714 174.095 44.1143 161.359 53.8339 148.2C61.3577 138.028 75.1783 142.254 79.4407 146.576C81.2038 148.36 81.5461 151.09 79.8992 152.97C79.5148 153.421 79.0434 153.792 78.5125 154.061C77.9816 154.33 77.4019 154.492 76.8073 154.536C76.2126 154.581 75.6149 154.508 75.0492 154.321C74.4834 154.135 73.9608 153.838 73.5121 153.45C71.8135 151.96 66.0722 149.517 61.6096 154.306C59.4719 156.602 56.1459 164.172 62.7914 170.86C68.9138 177.036 79.473 175.975 85.0012 169.255C95.3666 156.659 87.0872 143.437 82.8894 139.78C71.5617 129.953 54.9899 131.756 44.5922 142.555C35.4215 152.056 36.9069 165.873 37.8821 169.965C43.0745 191.652 65.4264 205.156 86.5124 198.129C123.931 185.648 137.952 135.995 124.035 99.5249C119.597 105.187 113.979 109.836 107.563 113.155C101.147 116.474 94.0839 118.385 86.8547 118.757V118.757ZM39.2642 92.4726C27.7685 76.3604 31.3012 53.8352 47.1626 42.1539C63.0175 30.4789 85.1885 34.0658 96.6906 50.178C108.186 66.2902 104.654 88.809 88.7922 100.49C72.9373 112.172 50.7598 108.578 39.2642 92.4726V92.4726ZM54.893 86.0597C55.5731 86.9955 56.4333 87.7892 57.4241 88.395C58.4149 89.0008 59.5169 89.4069 60.6667 89.5899C61.8165 89.7729 62.9914 89.7292 64.1241 89.4613C65.2568 89.1934 66.3249 88.7066 67.267 88.0289C71.2388 85.1645 72.1171 79.6531 69.2432 75.7018C68.5625 74.7646 67.7013 73.97 66.7092 73.3636C65.7171 72.7573 64.6136 72.3512 63.4623 72.1688C62.311 71.9863 61.1346 72.0311 60.0009 72.3006C58.8672 72.5701 57.7985 73.0589 56.8563 73.7389C54.9522 75.1198 53.677 77.1904 53.3092 79.4986C52.9414 81.8069 53.5107 84.1655 54.893 86.0597V86.0597Z" fill="#18362E"/>
</svg>
