<svg width="785" height="200" viewBox="0 0 785 200" fill="none" xmlns="http://www.w3.org/2000/svg">
<path d="M201.958 147C220.468 147 231.654 135.291 234.85 121.454H218.471C215.674 128.905 210.081 133.695 202.091 133.695C191.038 133.695 183.847 125.046 183.847 111.874C183.847 98.7017 190.905 90.0532 202.357 90.0532C213.277 90.0532 218.737 97.9034 216.207 111.076H231.521C236.448 90.8515 223.531 76.7479 202.49 76.7479C181.45 76.7479 168 90.7185 168 111.874C168 132.896 181.583 147 201.958 147Z" fill="#FFFFFF"/>
<path d="M278.738 76.7479C268.485 76.7479 260.494 82.07 256.633 90.8515V52H241.451V145.137H256.633V112.539C256.633 98.9678 263.69 89.9202 273.545 89.9202C281.801 89.9202 285.53 95.9076 285.53 105.088V145.137H300.711V105.088C300.711 87.6583 293.52 76.7479 278.738 76.7479Z" fill="#FFFFFF"/>
<path d="M338.254 76.7479C320.942 76.7479 307.892 86.5938 311.487 101.363H326.802C325.204 93.9118 330.131 89.9202 338.121 89.9202C348.774 89.9202 352.37 97.2381 352.37 107.35C347.709 106.286 342.382 105.62 337.189 105.62C318.412 105.62 306.693 113.737 306.693 127.175C306.693 138.751 315.482 147 329.598 147C340.518 147 348.641 142.077 353.568 133.562V145.137H367.551V107.35C367.551 88.8557 357.697 76.7479 338.254 76.7479ZM332.661 134.892C326.136 134.892 322.141 132.098 322.141 126.776C322.141 120.655 327.467 116.664 338.387 116.664C343.181 116.664 348.508 117.462 352.903 118.926C350.372 128.639 342.382 134.892 332.661 134.892Z" fill="#FFFFFF"/>
<path d="M454.54 76.7479C444.552 76.7479 436.695 82.07 432.833 90.8515C430.037 82.2031 422.979 76.7479 413.258 76.7479C403.004 76.7479 395.546 82.6022 392.084 90.4524V78.6106H376.903V145.137H392.084V112.672C392.084 98.8347 398.876 89.9202 407.798 89.9202C415.122 89.9202 418.718 95.7745 418.718 104.423V145.137H433.899V112.539C433.899 98.9678 440.291 90.1863 449.479 90.1863C456.67 90.1863 460.266 95.9076 460.266 104.423V145.137H475.447V102.826C475.447 86.5938 468.256 76.7479 454.54 76.7479Z" fill="#FFFFFF"/>
<path d="M531.623 124.115C529.359 130.235 523.5 133.695 516.043 133.695C505.389 133.695 499.263 127.175 497.932 116.132H545.339C551.732 94.3109 539.613 76.7479 516.176 76.7479C495.135 76.7479 481.818 90.7185 481.818 111.874C481.818 133.029 495.002 147 515.776 147C532.422 147 544.274 138.085 548.136 124.115H531.623ZM515.909 89.521C526.43 89.521 531.89 95.7745 530.957 105.354H498.198C499.796 95.1092 505.922 89.521 515.909 89.521Z" fill="#FFFFFF"/>
<path d="M571.377 145.137V52H556.196V145.137H571.377Z" fill="#FFFFFF"/>
<path d="M629.491 124.115C627.227 130.235 621.368 133.695 613.911 133.695C603.257 133.695 597.131 127.175 595.8 116.132H643.207C649.6 94.3109 637.481 76.7479 614.044 76.7479C593.003 76.7479 579.686 90.7185 579.686 111.874C579.686 133.029 592.87 147 613.644 147C630.29 147 642.142 138.085 646.004 124.115H629.491ZM613.777 89.521C624.298 89.521 629.757 95.7745 628.825 105.354H596.066C597.664 95.1092 603.790 89.521 613.777 89.521Z" fill="#FFFFFF"/>
<path d="M684.426 147C704.668 147 718.384 132.896 718.384 111.874C718.384 90.8515 704.668 76.7479 684.426 76.7479C664.051 76.7479 650.468 90.8515 650.468 111.874C650.468 132.896 664.051 147 684.426 147ZM684.426 133.695C673.506 133.695 666.315 125.046 666.315 111.874C666.315 98.7017 673.506 90.0532 684.426 90.0532C695.213 90.0532 702.537 98.7017 702.537 111.874C702.537 125.046 695.213 133.695 684.426 133.695Z" fill="#FFFFFF"/>
<path d="M763.56 76.7479C753.439 76.7479 745.316 82.07 740.921 90.8515V78.6106H725.74V145.137H740.921V112.539C740.921 98.9678 747.979 89.9202 758.1 89.9202C769.819 89.9202 769.819 100.697 769.819 108.282V145.137H785V107.882C785 97.9034 785 76.7479 763.56 76.7479Z" fill="#FFFFFF"/>
<path d="M86.8547 118.757C158.702 85.075 125.197 0 125.197 0C-20.0351 0 1.0703 124.614 1.0703 124.614L80.0542 124.633C93.2161 131.43 107.947 154.575 91.8469 175.195C83.4125 185.994 67.2024 186.716 56.8692 177.733C52.6714 174.095 44.1143 161.359 53.8339 148.2C61.3577 138.028 75.1783 142.254 79.4407 146.576C81.2038 148.36 81.5461 151.09 79.8992 152.97C79.5148 153.421 79.0434 153.792 78.5125 154.061C77.9816 154.33 77.4019 154.492 76.8073 154.536C76.2126 154.581 75.6149 154.508 75.0492 154.321C74.4834 154.135 73.9608 153.838 73.5121 153.45C71.8135 151.96 66.0722 149.517 61.6096 154.306C59.4719 156.602 56.1459 164.172 62.7914 170.86C68.9138 177.036 79.473 175.975 85.0012 169.255C95.3666 156.659 87.0872 143.437 82.8894 139.78C71.5617 129.953 54.9899 131.756 44.5922 142.555C35.4215 152.056 36.9069 165.873 37.8821 169.965C43.0745 191.652 65.4264 205.156 86.5124 198.129C123.931 185.648 137.952 135.995 124.035 99.5249C119.597 105.187 113.979 109.836 107.563 113.155C101.147 116.474 94.0839 118.385 86.8547 118.757V118.757ZM39.2642 92.4726C27.7685 76.3604 31.3012 53.8352 47.1626 42.1539C63.0175 30.4789 85.1885 34.0658 96.6906 50.178C108.186 66.2902 104.654 88.809 88.7922 100.49C72.9373 112.172 50.7598 108.578 39.2642 92.4726V92.4726ZM54.893 86.0597C55.5731 86.9955 56.4333 87.7892 57.4241 88.395C58.4149 89.0008 59.5169 89.4069 60.6667 89.5899C61.8165 89.7729 62.9914 89.7292 64.1241 89.4613C65.2568 89.1934 66.3249 88.7066 67.267 88.0289C71.2388 85.1645 72.1171 79.6531 69.2432 75.7018C68.5625 74.7646 67.7013 73.97 66.7092 73.3636C65.7171 72.7573 64.6136 72.3512 63.4623 72.1688C62.311 71.9863 61.1346 72.0311 60.0009 72.3006C58.8672 72.5701 57.7985 73.0589 56.8563 73.7389C54.9522 75.1198 53.677 77.1904 53.3092 79.4986C52.9414 81.8069 53.5107 84.1655 54.893 86.0597V86.0597Z" fill="#22C55E"/>
</svg>